<?xml version="1.0" encoding="UTF-8" standalone="yes"?><svg xmlns="http://www.w3.org/2000/svg" xmlns:xlink="http://www.w3.org/1999/xlink" height="1118px" style="width:1861px;height:1118px;" version="1.1" viewBox="0 0 1861 1118" width="1861px"><defs><filter height="300%" id="f1" width="300%" x="-1" y="-1"><feGaussianBlur result="blurOut" stdDeviation="2.0"/><feColorMatrix in="blurOut" result="blurOut2" type="matrix" values="0 0 0 0 0 0 0 0 0 0 0 0 0 0 0 0 0 0 .4 0"/><feOffset dx="4.0" dy="4.0" in="blurOut2" result="blurOut3"/><feBlend in="SourceGraphic" in2="blurOut3" mode="normal"/></filter></defs><g><text fill="#000000" font-family="sans-serif" font-size="18" lengthAdjust="spacingAndGlyphs" textLength="570" x="661" y="16.708">Vendor Event Listener Service - Reference VNF Environment</text><path d="M263,291.9531 C263,288.9531 265,286.9531 268,286.9531 C271,286.9531 273,288.9531 273,291.9531 C273,288.9531 275,286.9531 278,286.9531 C281,286.9531 283,288.9531 283,291.9531 C283,288.9531 285,286.9531 288,286.9531 C291,286.9531 293,288.9531 293,291.9531 C293,288.9531 295,286.9531 298,286.9531 C301,286.9531 303,288.9531 303,291.9531 C303,288.9531 305,286.9531 308,286.9531 C311,286.9531 313,288.9531 313,291.9531 C313,288.9531 315,286.9531 318,286.9531 C321,286.9531 323,288.9531 323,291.9531 C323,288.9531 325,286.9531 328,286.9531 C331,286.9531 333,288.9531 333,291.9531 C333,288.9531 335,286.9531 338,286.9531 C341,286.9531 343,288.9531 343,291.9531 C343,288.9531 345,286.9531 348,286.9531 C351,286.9531 353,288.9531 353,291.9531 C353,288.9531 355,286.9531 358,286.9531 C361,286.9531 363,288.9531 363,291.9531 C363,288.9531 365,286.9531 368,286.9531 C371,286.9531 373,288.9531 373,291.9531 C373,288.9531 375,286.9531 378,286.9531 C381,286.9531 383,288.9531 383,291.9531 C383,288.9531 385,286.9531 388,286.9531 C391,286.9531 393,288.9531 393,291.9531 C393,288.9531 395,286.9531 398,286.9531 C401,286.9531 403,288.9531 403,291.9531 C403,288.9531 405,286.9531 408,286.9531 C411,286.9531 413,288.9531 413,291.9531 C413,288.9531 415,286.9531 418,286.9531 C421,286.9531 423,288.9531 423,291.9531 C423,288.9531 425,286.9531 428,286.9531 C431,286.9531 433,288.9531 433,291.9531 C433,288.9531 435,286.9531 438,286.9531 C441,286.9531 443,288.9531 443,291.9531 C443,288.9531 445,286.9531 448,286.9531 C451,286.9531 453,288.9531 453,291.9531 C453,288.9531 455,286.9531 458,286.9531 C461,286.9531 463,288.9531 463,291.9531 C463,288.9531 465,286.9531 468,286.9531 C471,286.9531 473,288.9531 473,291.9531 C473,288.9531 475,286.9531 478,286.9531 C481,286.9531 483,288.9531 483,291.9531 C483,288.9531 485,286.9531 488,286.9531 C491,286.9531 493,288.9531 493,291.9531 C493,288.9531 495,286.9531 498,286.9531 C501,286.9531 503,288.9531 503,291.9531 C503,288.9531 505,286.9531 508,286.9531 C511,286.9531 513,288.9531 513,291.9531 C513,288.9531 515,286.9531 518,286.9531 C521,286.9531 523,288.9531 523,291.9531 C523,288.9531 525,286.9531 528,286.9531 C531,286.9531 533,288.9531 533,291.9531 C533,288.9531 535,286.9531 538,286.9531 C541,286.9531 543,288.9531 543,291.9531 C543,288.9531 545,286.9531 548,286.9531 C551,286.9531 553,288.9531 553,291.9531 C553,288.9531 555,286.9531 558,286.9531 C561,286.9531 563,288.9531 563,291.9531 C563,288.9531 565,286.9531 568,286.9531 C571,286.9531 573,288.9531 573,291.9531 C573,288.9531 575,286.9531 578,286.9531 C581,286.9531 583,288.9531 583,291.9531 C583,288.9531 585,286.9531 588,286.9531 C591,286.9531 593,288.9531 593,291.9531 C593,288.9531 595,286.9531 598,286.9531 C601,286.9531 603,288.9531 603,291.9531 C603,288.9531 605,286.9531 608,286.9531 C611,286.9531 613,288.9531 613,291.9531 C613,288.9531 615,286.9531 618,286.9531 C621,286.9531 623,288.9531 623,291.9531 C623,288.9531 625,286.9531 628,286.9531 C631,286.9531 633,288.9531 633,291.9531 C633,288.9531 635,286.9531 638,286.9531 C641,286.9531 643,288.9531 643,291.9531 C643,288.9531 645,286.9531 648,286.9531 C651,286.9531 653,288.9531 653,291.9531 C653,288.9531 655,286.9531 658,286.9531 C661,286.9531 663,288.9531 663,291.9531 C663,288.9531 665,286.9531 668,286.9531 C671,286.9531 673,288.9531 673,291.9531 C673,288.9531 675,286.9531 678,286.9531 C681,286.9531 683,288.9531 683,291.9531 C683,288.9531 685,286.9531 688,286.9531 C691,286.9531 693,288.9531 693,291.9531 C693,288.9531 695,286.9531 698,286.9531 C701,286.9531 703,288.9531 703,291.9531 C703,288.9531 705,286.9531 708,286.9531 C711,286.9531 713,288.9531 713,291.9531 C713,288.9531 715,286.9531 718,286.9531 C721,286.9531 723,288.9531 723,291.9531 C723,288.9531 725,286.9531 728,286.9531 C731,286.9531 733,288.9531 733,291.9531 C733,288.9531 735,286.9531 738,286.9531 C741,286.9531 743,288.9531 743,291.9531 C743,288.9531 745,286.9531 748,286.9531 C751,286.9531 753,288.9531 753,291.9531 C753,288.9531 755,286.9531 758,286.9531 C761,286.9531 763,288.9531 763,291.9531 C763,288.9531 765,286.9531 768,286.9531 C771,286.9531 773,288.9531 773,291.9531 C773,288.9531 775,286.9531 778,286.9531 C781,286.9531 783,288.9531 783,291.9531 C783,288.9531 785,286.9531 788,286.9531 C791,286.9531 793,288.9531 793,291.9531 C793,288.9531 795,286.9531 798,286.9531 C801,286.9531 803,288.9531 803,291.9531 C803,288.9531 805,286.9531 808,286.9531 C811,286.9531 813,288.9531 813,291.9531 C813,288.9531 815,286.9531 818,286.9531 C821,286.9531 823,288.9531 823,291.9531 C823,288.9531 825,286.9531 828,286.9531 C831,286.9531 833,288.9531 833,291.9531 C833,288.9531 835,286.9531 838,286.9531 C841,286.9531 843,288.9531 843,291.9531 C843,288.9531 845,286.9531 848,286.9531 C851,286.9531 853,288.9531 853,291.9531 C853,288.9531 855,286.9531 858,286.9531 C861,286.9531 863,288.9531 863,291.9531 C863,288.9531 865,286.9531 868,286.9531 C871,286.9531 873,288.9531 873,291.9531 C873,288.9531 875,286.9531 878,286.9531 C881,286.9531 883,288.9531 883,291.9531 C883,288.9531 885,286.9531 888,286.9531 C891,286.9531 893,288.9531 893,291.9531 C893,288.9531 895,286.9531 898,286.9531 C901,286.9531 903,288.9531 903,291.9531 C903,288.9531 905,286.9531 908,286.9531 C911,286.9531 913,288.9531 913,291.9531 C913,288.9531 915,286.9531 918,286.9531 C921,286.9531 923,288.9531 923,291.9531 C923,288.9531 925,286.9531 928,286.9531 C931,286.9531 933,288.9531 933,291.9531 C933,288.9531 935,286.9531 938,286.9531 C941,286.9531 943,288.9531 943,291.9531 C943,288.9531 945,286.9531 948,286.9531 C951,286.9531 953,288.9531 953,291.9531 C953,288.9531 955,286.9531 958,286.9531 C961,286.9531 963,288.9531 963,291.9531 C963,288.9531 965,286.9531 968,286.9531 C971,286.9531 973,288.9531 973,291.9531 C973,288.9531 975,286.9531 978,286.9531 C981,286.9531 983,288.9531 983,291.9531 C983,288.9531 985,286.9531 988,286.9531 C991,286.9531 993,288.9531 993,291.9531 C993,288.9531 995,286.9531 998,286.9531 C1001,286.9531 1003,288.9531 1003,291.9531 C1003,288.9531 1005,286.9531 1008,286.9531 C1011,286.9531 1013,288.9531 1013,291.9531 C1013,288.9531 1015,286.9531 1018,286.9531 C1021,286.9531 1023,288.9531 1023,291.9531 C1023,288.9531 1025,286.9531 1028,286.9531 C1031,286.9531 1033,288.9531 1033,291.9531 C1033,288.9531 1035,286.9531 1038,286.9531 C1041,286.9531 1043,288.9531 1043,291.9531 C1043,288.9531 1045,286.9531 1048,286.9531 C1051,286.9531 1053,288.9531 1053,291.9531 C1053,288.9531 1055,286.9531 1058,286.9531 C1061,286.9531 1063,288.9531 1063,291.9531 C1063,288.9531 1065,286.9531 1068,286.9531 C1071,286.9531 1073,288.9531 1073,291.9531 C1073,288.9531 1075,286.9531 1078,286.9531 C1081,286.9531 1083,288.9531 1083,291.9531 C1083,288.9531 1085,286.9531 1088,286.9531 C1091,286.9531 1093,288.9531 1093,291.9531 C1093,288.9531 1095,286.9531 1098,286.9531 C1101,286.9531 1103,288.9531 1103,291.9531 C1103,288.9531 1105,286.9531 1108,286.9531 C1111,286.9531 1113,288.9531 1113,291.9531 C1113,288.9531 1115,286.9531 1118,286.9531 C1121,286.9531 1123,288.9531 1123,291.9531 C1123,288.9531 1125,286.9531 1128,286.9531 C1131,286.9531 1133,288.9531 1133,291.9531 C1133,288.9531 1135,286.9531 1138,286.9531 C1141,286.9531 1143,288.9531 1143,291.9531 C1143,288.9531 1145,286.9531 1148,286.9531 C1151,286.9531 1153,288.9531 1153,291.9531 C1153,288.9531 1155,286.9531 1158,286.9531 C1161,286.9531 1163,288.9531 1163,291.9531 C1163,288.9531 1165,286.9531 1168,286.9531 C1171,286.9531 1173,288.9531 1173,291.9531 C1173,288.9531 1175,286.9531 1178,286.9531 C1181,286.9531 1183,288.9531 1183,291.9531 C1183,288.9531 1185,286.9531 1188,286.9531 C1191,286.9531 1193,288.9531 1193,291.9531 C1193,288.9531 1195,286.9531 1198,286.9531 C1201,286.9531 1203,288.9531 1203,291.9531 C1203,288.9531 1205,286.9531 1208,286.9531 C1211,286.9531 1213,288.9531 1213,291.9531 C1213,288.9531 1215,286.9531 1218,286.9531 C1221,286.9531 1223,288.9531 1223,291.9531 C1223,288.9531 1225,286.9531 1228,286.9531 C1231,286.9531 1233,288.9531 1233,291.9531 C1233,288.9531 1235,286.9531 1238,286.9531 C1241,286.9531 1243,288.9531 1243,291.9531 C1243,288.9531 1245,286.9531 1248,286.9531 C1251,286.9531 1253,288.9531 1253,291.9531 C1253,288.9531 1255,286.9531 1258,286.9531 C1261,286.9531 1263,288.9531 1263,291.9531 C1263,288.9531 1265,286.9531 1268,286.9531 C1271,286.9531 1273,288.9531 1273,291.9531 C1273,288.9531 1275,286.9531 1278,286.9531 C1281,286.9531 1283,288.9531 1283,291.9531 C1283,288.9531 1285,286.9531 1288,286.9531 C1291,286.9531 1293,288.9531 1293,291.9531 C1293,288.9531 1295,286.9531 1298,286.9531 C1301,286.9531 1303,288.9531 1303,291.9531 C1303,288.9531 1305,286.9531 1308,286.9531 C1311,286.9531 1313,288.9531 1313,291.9531 C1313,288.9531 1315,286.9531 1318,286.9531 C1321,286.9531 1323,288.9531 1323,291.9531 C1323,288.9531 1325,286.9531 1328,286.9531 C1331,286.9531 1333,288.9531 1333,291.9531 C1333,288.9531 1335,286.9531 1338,286.9531 C1341,286.9531 1343,288.9531 1343,291.9531 C1343,288.9531 1345,286.9531 1348,286.9531 C1351,286.9531 1353,288.9531 1353,291.9531 C1353,288.9531 1355,286.9531 1358,286.9531 C1361,286.9531 1363,288.9531 1363,291.9531 C1363,288.9531 1365,286.9531 1368,286.9531 C1371,286.9531 1373,288.9531 1373,291.9531 C1373,288.9531 1375,286.9531 1378,286.9531 C1381,286.9531 1383,288.9531 1383,291.9531 C1383,288.9531 1385,286.9531 1388,286.9531 C1391,286.9531 1393,288.9531 1393,291.9531 C1393,288.9531 1395,286.9531 1398,286.9531 C1401,286.9531 1403,288.9531 1403,291.9531 C1403,288.9531 1405,286.9531 1408,286.9531 C1411,286.9531 1413,288.9531 1413,291.9531 C1413,288.9531 1415,286.9531 1418,286.9531 C1421,286.9531 1423,288.9531 1423,291.9531 C1423,288.9531 1425,286.9531 1428,286.9531 C1431,286.9531 1433,288.9531 1433,291.9531 C1433,288.9531 1435,286.9531 1438,286.9531 C1441,286.9531 1443,288.9531 1443,291.9531 C1443,288.9531 1445,286.9531 1448,286.9531 C1451,286.9531 1453,288.9531 1453,291.9531 C1453,288.9531 1455,286.9531 1458,286.9531 C1461,286.9531 1463,288.9531 1463,291.9531 C1463,288.9531 1465,286.9531 1468,286.9531 C1471,286.9531 1473,288.9531 1473,291.9531 C1473,288.9531 1475,286.9531 1478,286.9531 C1481,286.9531 1483,288.9531 1483,291.9531 C1483,288.9531 1485,286.9531 1488,286.9531 C1491,286.9531 1493,288.9531 1493,291.9531 C1493,288.9531 1495,286.9531 1498,286.9531 C1501,286.9531 1503,288.9531 1503,291.9531 C1503,288.9531 1505,286.9531 1508,286.9531 C1511,286.9531 1513,288.9531 1513,291.9531 C1513,288.9531 1515,286.9531 1518,286.9531 C1521,286.9531 1523,288.9531 1523,291.9531 C1523,288.9531 1525,286.9531 1528,286.9531 C1531,286.9531 1533,288.9531 1533,291.9531 C1533,288.9531 1535,286.9531 1538,286.9531 C1541,286.9531 1543,288.9531 1543,291.9531 C1543,288.9531 1545,286.9531 1548,286.9531 C1551,286.9531 1553,288.9531 1553,291.9531 C1553,288.9531 1555,286.9531 1558,286.9531 C1561,286.9531 1563,288.9531 1563,291.9531 C1563,288.9531 1565,286.9531 1568,286.9531 C1571,286.9531 1573,288.9531 1573,291.9531 C1573,288.9531 1575,286.9531 1578,286.9531 C1581,286.9531 1583,288.9531 1583,291.9531 C1583,288.9531 1585,286.9531 1588,286.9531 C1591,286.9531 1593,288.9531 1593,291.9531 C1593,288.9531 1595,286.9531 1598,286.9531 C1601,286.9531 1603,288.9531 1603,291.9531 C1603,288.9531 1605,286.9531 1608,286.9531 C1611,286.9531 1613,288.9531 1613,291.9531 C1613,288.9531 1615,286.9531 1618,286.9531 C1621,286.9531 1623,288.9531 1623,291.9531 C1623,288.9531 1625,286.9531 1628,286.9531 C1631,286.9531 1633,288.9531 1633,291.9531 C1633,288.9531 1635,286.9531 1638,286.9531 C1641,286.9531 1643,288.9531 1643,291.9531 C1643,288.9531 1645,286.9531 1648,286.9531 C1651,286.9531 1653,288.9531 1653,291.9531 C1653,288.9531 1655,286.9531 1658,286.9531 C1661,286.9531 1663,288.9531 1663,291.9531 C1663,288.9531 1665,286.9531 1668,286.9531 C1671,286.9531 1673,288.9531 1673,291.9531 C1673,288.9531 1675,286.9531 1678,286.9531 C1681,286.9531 1683,288.9531 1683,291.9531 C1683,288.9531 1685,286.9531 1688,286.9531 C1691,286.9531 1693,288.9531 1693,291.9531 C1693,288.9531 1695,286.9531 1698,286.9531 C1701,286.9531 1703,288.9531 1703,291.9531 C1703,288.9531 1705,286.9531 1708,286.9531 C1711,286.9531 1713,288.9531 1713,291.9531 C1716,291.9531 1718,293.9531 1718,296.9531 C1718,299.9531 1716,301.9531 1713,301.9531 C1716,301.9531 1718,303.9531 1718,306.9531 C1718,309.9531 1716,311.9531 1713,311.9531 C1716,311.9531 1718,313.9531 1718,316.9531 C1718,319.9531 1716,321.9531 1713,321.9531 C1716,321.9531 1718,323.9531 1718,326.9531 C1718,329.9531 1716,331.9531 1713,331.9531 C1716,331.9531 1718,333.9531 1718,336.9531 C1718,339.9531 1716,341.9531 1713,341.9531 C1716,341.9531 1718,343.9531 1718,346.9531 C1718,349.9531 1716,351.9531 1713,351.9531 C1716,351.9531 1718,353.9531 1718,356.9531 C1718,359.9531 1716,361.9531 1713,361.9531 C1716,361.9531 1718,363.9531 1718,366.9531 C1718,369.9531 1716,371.9531 1713,371.9531 C1716,371.9531 1718,373.9531 1718,376.9531 C1718,379.9531 1716,381.9531 1713,381.9531 C1716,381.9531 1718,383.9531 1718,386.9531 C1718,389.9531 1716,391.9531 1713,391.9531 C1716,391.9531 1718,393.9531 1718,396.9531 C1718,399.9531 1716,401.9531 1713,401.9531 C1716,401.9531 1718,403.9531 1718,406.9531 C1718,409.9531 1716,411.9531 1713,411.9531 C1716,411.9531 1718,413.9531 1718,416.9531 C1718,419.9531 1716,421.9531 1713,421.9531 C1716,421.9531 1718,423.9531 1718,426.9531 C1718,429.9531 1716,431.9531 1713,431.9531 C1716,431.9531 1718,433.9531 1718,436.9531 C1718,439.9531 1716,441.9531 1713,441.9531 C1716,441.9531 1718,443.9531 1718,446.9531 C1718,449.9531 1716,451.9531 1713,451.9531 C1716,451.9531 1718,453.9531 1718,456.9531 C1718,459.9531 1716,461.9531 1713,461.9531 C1716,461.9531 1718,463.9531 1718,466.9531 C1718,469.9531 1716,471.9531 1713,471.9531 C1716,471.9531 1718,473.9531 1718,476.9531 C1718,479.9531 1716,481.9531 1713,481.9531 C1716,481.9531 1718,483.9531 1718,486.9531 C1718,489.9531 1716,491.9531 1713,491.9531 C1716,491.9531 1718,493.9531 1718,496.9531 C1718,499.9531 1716,501.9531 1713,501.9531 C1716,501.9531 1718,503.9531 1718,506.9531 C1718,509.9531 1716,511.9531 1713,511.9531 C1716,511.9531 1718,513.9531 1718,516.9531 C1718,519.9531 1716,521.9531 1713,521.9531 C1716,521.9531 1718,523.9531 1718,526.9531 C1718,529.9531 1716,531.9531 1713,531.9531 C1716,531.9531 1718,533.9531 1718,536.9531 C1718,539.9531 1716,541.9531 1713,541.9531 C1716,541.9531 1718,543.9531 1718,546.9531 C1718,549.9531 1716,551.9531 1713,551.9531 C1716,551.9531 1718,553.9531 1718,556.9531 C1718,559.9531 1716,561.9531 1713,561.9531 C1716,561.9531 1718,563.9531 1718,566.9531 C1718,569.9531 1716,571.9531 1713,571.9531 C1716,571.9531 1718,573.9531 1718,576.9531 C1718,579.9531 1716,581.9531 1713,581.9531 C1716,581.9531 1718,583.9531 1718,586.9531 C1718,589.9531 1716,591.9531 1713,591.9531 C1716,591.9531 1718,593.9531 1718,596.9531 C1718,599.9531 1716,601.9531 1713,601.9531 C1716,601.9531 1718,603.9531 1718,606.9531 C1718,609.9531 1716,611.9531 1713,611.9531 C1716,611.9531 1718,613.9531 1718,616.9531 C1718,619.9531 1716,621.9531 1713,621.9531 C1716,621.9531 1718,623.9531 1718,626.9531 C1718,629.9531 1716,631.9531 1713,631.9531 C1716,631.9531 1718,633.9531 1718,636.9531 C1718,639.9531 1716,641.9531 1713,641.9531 C1716,641.9531 1718,643.9531 1718,646.9531 C1718,649.9531 1716,651.9531 1713,651.9531 C1716,651.9531 1718,653.9531 1718,656.9531 C1718,659.9531 1716,661.9531 1713,661.9531 C1716,661.9531 1718,663.9531 1718,666.9531 C1718,669.9531 1716,671.9531 1713,671.9531 C1716,671.9531 1718,673.9531 1718,676.9531 C1718,679.9531 1716,681.9531 1713,681.9531 C1716,681.9531 1718,683.9531 1718,686.9531 C1718,689.9531 1716,691.9531 1713,691.9531 C1716,691.9531 1718,693.9531 1718,696.9531 C1718,699.9531 1716,701.9531 1713,701.9531 C1716,701.9531 1718,703.9531 1718,706.9531 C1718,709.9531 1716,711.9531 1713,711.9531 C1716,711.9531 1718,713.9531 1718,716.9531 C1718,719.9531 1716,721.9531 1713,721.9531 C1716,721.9531 1718,723.9531 1718,726.9531 C1718,729.9531 1716,731.9531 1713,731.9531 C1716,731.9531 1718,733.9531 1718,736.9531 C1718,739.9531 1716,741.9531 1713,741.9531 C1716,741.9531 1718,743.9531 1718,746.9531 C1718,749.9531 1716,751.9531 1713,751.9531 C1716,751.9531 1718,753.9531 1718,756.9531 C1718,759.9531 1716,761.9531 1713,761.9531 C1716,761.9531 1718,763.9531 1718,766.9531 C1718,769.9531 1716,771.9531 1713,771.9531 C1716,771.9531 1718,773.9531 1718,776.9531 C1718,779.9531 1716,781.9531 1713,781.9531 C1716,781.9531 1718,783.9531 1718,786.9531 C1718,789.9531 1716,791.9531 1713,791.9531 C1716,791.9531 1718,793.9531 1718,796.9531 C1718,799.9531 1716,801.9531 1713,801.9531 C1716,801.9531 1718,803.9531 1718,806.9531 C1718,809.9531 1716,811.9531 1713,811.9531 C1716,811.9531 1718,813.9531 1718,816.9531 C1718,819.9531 1716,821.9531 1713,821.9531 C1716,821.9531 1718,823.9531 1718,826.9531 C1718,829.9531 1716,831.9531 1713,831.9531 C1716,831.9531 1718,833.9531 1718,836.9531 C1718,839.9531 1716,841.9531 1713,841.9531 C1716,841.9531 1718,843.9531 1718,846.9531 C1718,849.9531 1716,851.9531 1713,851.9531 C1716,851.9531 1718,853.9531 1718,856.9531 C1718,859.9531 1716,861.9531 1713,861.9531 C1716,861.9531 1718,863.9531 1718,866.9531 C1718,869.9531 1716,871.9531 1713,871.9531 C1716,871.9531 1718,873.9531 1718,876.9531 C1718,879.9531 1716,881.9531 1713,881.9531 C1716,881.9531 1718,883.9531 1718,886.9531 C1718,889.9531 1716,891.9531 1713,891.9531 C1716,891.9531 1718,893.9531 1718,896.9531 C1718,899.9531 1716,901.9531 1713,901.9531 C1716,901.9531 1718,903.9531 1718,906.9531 C1718,909.9531 1716,911.9531 1713,911.9531 C1716,911.9531 1718,913.9531 1718,916.9531 C1718,919.9531 1716,921.9531 1713,921.9531 C1716,921.9531 1718,923.9531 1718,926.9531 C1718,929.9531 1716,931.9531 1713,931.9531 C1716,931.9531 1718,933.9531 1718,936.9531 C1718,939.9531 1716,941.9531 1713,941.9531 C1713,944.9531 1710,946.9531 1708,946.9531 C1705,946.9531 1703,944.9531 1703,941.9531 C1703,944.9531 1700,946.9531 1698,946.9531 C1695,946.9531 1693,944.9531 1693,941.9531 C1693,944.9531 1690,946.9531 1688,946.9531 C1685,946.9531 1683,944.9531 1683,941.9531 C1683,944.9531 1680,946.9531 1678,946.9531 C1675,946.9531 1673,944.9531 1673,941.9531 C1673,944.9531 1670,946.9531 1668,946.9531 C1665,946.9531 1663,944.9531 1663,941.9531 C1663,944.9531 1660,946.9531 1658,946.9531 C1655,946.9531 1653,944.9531 1653,941.9531 C1653,944.9531 1650,946.9531 1648,946.9531 C1645,946.9531 1643,944.9531 1643,941.9531 C1643,944.9531 1640,946.9531 1638,946.9531 C1635,946.9531 1633,944.9531 1633,941.9531 C1633,944.9531 1630,946.9531 1628,946.9531 C1625,946.9531 1623,944.9531 1623,941.9531 C1623,944.9531 1620,946.9531 1618,946.9531 C1615,946.9531 1613,944.9531 1613,941.9531 C1613,944.9531 1610,946.9531 1608,946.9531 C1605,946.9531 1603,944.9531 1603,941.9531 C1603,944.9531 1600,946.9531 1598,946.9531 C1595,946.9531 1593,944.9531 1593,941.9531 C1593,944.9531 1590,946.9531 1588,946.9531 C1585,946.9531 1583,944.9531 1583,941.9531 C1583,944.9531 1580,946.9531 1578,946.9531 C1575,946.9531 1573,944.9531 1573,941.9531 C1573,944.9531 1570,946.9531 1568,946.9531 C1565,946.9531 1563,944.9531 1563,941.9531 C1563,944.9531 1560,946.9531 1558,946.9531 C1555,946.9531 1553,944.9531 1553,941.9531 C1553,944.9531 1550,946.9531 1548,946.9531 C1545,946.9531 1543,944.9531 1543,941.9531 C1543,944.9531 1540,946.9531 1538,946.9531 C1535,946.9531 1533,944.9531 1533,941.9531 C1533,944.9531 1530,946.9531 1528,946.9531 C1525,946.9531 1523,944.9531 1523,941.9531 C1523,944.9531 1520,946.9531 1518,946.9531 C1515,946.9531 1513,944.9531 1513,941.9531 C1513,944.9531 1510,946.9531 1508,946.9531 C1505,946.9531 1503,944.9531 1503,941.9531 C1503,944.9531 1500,946.9531 1498,946.9531 C1495,946.9531 1493,944.9531 1493,941.9531 C1493,944.9531 1490,946.9531 1488,946.9531 C1485,946.9531 1483,944.9531 1483,941.9531 C1483,944.9531 1480,946.9531 1478,946.9531 C1475,946.9531 1473,944.9531 1473,941.9531 C1473,944.9531 1470,946.9531 1468,946.9531 C1465,946.9531 1463,944.9531 1463,941.9531 C1463,944.9531 1460,946.9531 1458,946.9531 C1455,946.9531 1453,944.9531 1453,941.9531 C1453,944.9531 1450,946.9531 1448,946.9531 C1445,946.9531 1443,944.9531 1443,941.9531 C1443,944.9531 1440,946.9531 1438,946.9531 C1435,946.9531 1433,944.9531 1433,941.9531 C1433,944.9531 1430,946.9531 1428,946.9531 C1425,946.9531 1423,944.9531 1423,941.9531 C1423,944.9531 1420,946.9531 1418,946.9531 C1415,946.9531 1413,944.9531 1413,941.9531 C1413,944.9531 1410,946.9531 1408,946.9531 C1405,946.9531 1403,944.9531 1403,941.9531 C1403,944.9531 1400,946.9531 1398,946.9531 C1395,946.9531 1393,944.9531 1393,941.9531 C1393,944.9531 1390,946.9531 1388,946.9531 C1385,946.9531 1383,944.9531 1383,941.9531 C1383,944.9531 1380,946.9531 1378,946.9531 C1375,946.9531 1373,944.9531 1373,941.9531 C1373,944.9531 1370,946.9531 1368,946.9531 C1365,946.9531 1363,944.9531 1363,941.9531 C1363,944.9531 1360,946.9531 1358,946.9531 C1355,946.9531 1353,944.9531 1353,941.9531 C1353,944.9531 1350,946.9531 1348,946.9531 C1345,946.9531 1343,944.9531 1343,941.9531 C1343,944.9531 1340,946.9531 1338,946.9531 C1335,946.9531 1333,944.9531 1333,941.9531 C1333,944.9531 1330,946.9531 1328,946.9531 C1325,946.9531 1323,944.9531 1323,941.9531 C1323,944.9531 1320,946.9531 1318,946.9531 C1315,946.9531 1313,944.9531 1313,941.9531 C1313,944.9531 1310,946.9531 1308,946.9531 C1305,946.9531 1303,944.9531 1303,941.9531 C1303,944.9531 1300,946.9531 1298,946.9531 C1295,946.9531 1293,944.9531 1293,941.9531 C1293,944.9531 1290,946.9531 1288,946.9531 C1285,946.9531 1283,944.9531 1283,941.9531 C1283,944.9531 1280,946.9531 1278,946.9531 C1275,946.9531 1273,944.9531 1273,941.9531 C1273,944.9531 1270,946.9531 1268,946.9531 C1265,946.9531 1263,944.9531 1263,941.9531 C1263,944.9531 1260,946.9531 1258,946.9531 C1255,946.9531 1253,944.9531 1253,941.9531 C1253,944.9531 1250,946.9531 1248,946.9531 C1245,946.9531 1243,944.9531 1243,941.9531 C1243,944.9531 1240,946.9531 1238,946.9531 C1235,946.9531 1233,944.9531 1233,941.9531 C1233,944.9531 1230,946.9531 1228,946.9531 C1225,946.9531 1223,944.9531 1223,941.9531 C1223,944.9531 1220,946.9531 1218,946.9531 C1215,946.9531 1213,944.9531 1213,941.9531 C1213,944.9531 1210,946.9531 1208,946.9531 C1205,946.9531 1203,944.9531 1203,941.9531 C1203,944.9531 1200,946.9531 1198,946.9531 C1195,946.9531 1193,944.9531 1193,941.9531 C1193,944.9531 1190,946.9531 1188,946.9531 C1185,946.9531 1183,944.9531 1183,941.9531 C1183,944.9531 1180,946.9531 1178,946.9531 C1175,946.9531 1173,944.9531 1173,941.9531 C1173,944.9531 1170,946.9531 1168,946.9531 C1165,946.9531 1163,944.9531 1163,941.9531 C1163,944.9531 1160,946.9531 1158,946.9531 C1155,946.9531 1153,944.9531 1153,941.9531 C1153,944.9531 1150,946.9531 1148,946.9531 C1145,946.9531 1143,944.9531 1143,941.9531 C1143,944.9531 1140,946.9531 1138,946.9531 C1135,946.9531 1133,944.9531 1133,941.9531 C1133,944.9531 1130,946.9531 1128,946.9531 C1125,946.9531 1123,944.9531 1123,941.9531 C1123,944.9531 1120,946.9531 1118,946.9531 C1115,946.9531 1113,944.9531 1113,941.9531 C1113,944.9531 1110,946.9531 1108,946.9531 C1105,946.9531 1103,944.9531 1103,941.9531 C1103,944.9531 1100,946.9531 1098,946.9531 C1095,946.9531 1093,944.9531 1093,941.9531 C1093,944.9531 1090,946.9531 1088,946.9531 C1085,946.9531 1083,944.9531 1083,941.9531 C1083,944.9531 1080,946.9531 1078,946.9531 C1075,946.9531 1073,944.9531 1073,941.9531 C1073,944.9531 1070,946.9531 1068,946.9531 C1065,946.9531 1063,944.9531 1063,941.9531 C1063,944.9531 1060,946.9531 1058,946.9531 C1055,946.9531 1053,944.9531 1053,941.9531 C1053,944.9531 1050,946.9531 1048,946.9531 C1045,946.9531 1043,944.9531 1043,941.9531 C1043,944.9531 1040,946.9531 1038,946.9531 C1035,946.9531 1033,944.9531 1033,941.9531 C1033,944.9531 1030,946.9531 1028,946.9531 C1025,946.9531 1023,944.9531 1023,941.9531 C1023,944.9531 1020,946.9531 1018,946.9531 C1015,946.9531 1013,944.9531 1013,941.9531 C1013,944.9531 1010,946.9531 1008,946.9531 C1005,946.9531 1003,944.9531 1003,941.9531 C1003,944.9531 1000,946.9531 998,946.9531 C995,946.9531 993,944.9531 993,941.9531 C993,944.9531 990,946.9531 988,946.9531 C985,946.9531 983,944.9531 983,941.9531 C983,944.9531 980,946.9531 978,946.9531 C975,946.9531 973,944.9531 973,941.9531 C973,944.9531 970,946.9531 968,946.9531 C965,946.9531 963,944.9531 963,941.9531 C963,944.9531 960,946.9531 958,946.9531 C955,946.9531 953,944.9531 953,941.9531 C953,944.9531 950,946.9531 948,946.9531 C945,946.9531 943,944.9531 943,941.9531 C943,944.9531 940,946.9531 938,946.9531 C935,946.9531 933,944.9531 933,941.9531 C933,944.9531 930,946.9531 928,946.9531 C925,946.9531 923,944.9531 923,941.9531 C923,944.9531 920,946.9531 918,946.9531 C915,946.9531 913,944.9531 913,941.9531 C913,944.9531 910,946.9531 908,946.9531 C905,946.9531 903,944.9531 903,941.9531 C903,944.9531 900,946.9531 898,946.9531 C895,946.9531 893,944.9531 893,941.9531 C893,944.9531 890,946.9531 888,946.9531 C885,946.9531 883,944.9531 883,941.9531 C883,944.9531 880,946.9531 878,946.9531 C875,946.9531 873,944.9531 873,941.9531 C873,944.9531 870,946.9531 868,946.9531 C865,946.9531 863,944.9531 863,941.9531 C863,944.9531 860,946.9531 858,946.9531 C855,946.9531 853,944.9531 853,941.9531 C853,944.9531 850,946.9531 848,946.9531 C845,946.9531 843,944.9531 843,941.9531 C843,944.9531 840,946.9531 838,946.9531 C835,946.9531 833,944.9531 833,941.9531 C833,944.9531 830,946.9531 828,946.9531 C825,946.9531 823,944.9531 823,941.9531 C823,944.9531 820,946.9531 818,946.9531 C815,946.9531 813,944.9531 813,941.9531 C813,944.9531 810,946.9531 808,946.9531 C805,946.9531 803,944.9531 803,941.9531 C803,944.9531 800,946.9531 798,946.9531 C795,946.9531 793,944.9531 793,941.9531 C793,944.9531 790,946.9531 788,946.9531 C785,946.9531 783,944.9531 783,941.9531 C783,944.9531 780,946.9531 778,946.9531 C775,946.9531 773,944.9531 773,941.9531 C773,944.9531 770,946.9531 768,946.9531 C765,946.9531 763,944.9531 763,941.9531 C763,944.9531 760,946.9531 758,946.9531 C755,946.9531 753,944.9531 753,941.9531 C753,944.9531 750,946.9531 748,946.9531 C745,946.9531 743,944.9531 743,941.9531 C743,944.9531 740,946.9531 738,946.9531 C735,946.9531 733,944.9531 733,941.9531 C733,944.9531 730,946.9531 728,946.9531 C725,946.9531 723,944.9531 723,941.9531 C723,944.9531 720,946.9531 718,946.9531 C715,946.9531 713,944.9531 713,941.9531 C713,944.9531 710,946.9531 708,946.9531 C705,946.9531 703,944.9531 703,941.9531 C703,944.9531 700,946.9531 698,946.9531 C695,946.9531 693,944.9531 693,941.9531 C693,944.9531 690,946.9531 688,946.9531 C685,946.9531 683,944.9531 683,941.9531 C683,944.9531 680,946.9531 678,946.9531 C675,946.9531 673,944.9531 673,941.9531 C673,944.9531 670,946.9531 668,946.9531 C665,946.9531 663,944.9531 663,941.9531 C663,944.9531 660,946.9531 658,946.9531 C655,946.9531 653,944.9531 653,941.9531 C653,944.9531 650,946.9531 648,946.9531 C645,946.9531 643,944.9531 643,941.9531 C643,944.9531 640,946.9531 638,946.9531 C635,946.9531 633,944.9531 633,941.9531 C633,944.9531 630,946.9531 628,946.9531 C625,946.9531 623,944.9531 623,941.9531 C623,944.9531 620,946.9531 618,946.9531 C615,946.9531 613,944.9531 613,941.9531 C613,944.9531 610,946.9531 608,946.9531 C605,946.9531 603,944.9531 603,941.9531 C603,944.9531 600,946.9531 598,946.9531 C595,946.9531 593,944.9531 593,941.9531 C593,944.9531 590,946.9531 588,946.9531 C585,946.9531 583,944.9531 583,941.9531 C583,944.9531 580,946.9531 578,946.9531 C575,946.9531 573,944.9531 573,941.9531 C573,944.9531 570,946.9531 568,946.9531 C565,946.9531 563,944.9531 563,941.9531 C563,944.9531 560,946.9531 558,946.9531 C555,946.9531 553,944.9531 553,941.9531 C553,944.9531 550,946.9531 548,946.9531 C545,946.9531 543,944.9531 543,941.9531 C543,944.9531 540,946.9531 538,946.9531 C535,946.9531 533,944.9531 533,941.9531 C533,944.9531 530,946.9531 528,946.9531 C525,946.9531 523,944.9531 523,941.9531 C523,944.9531 520,946.9531 518,946.9531 C515,946.9531 513,944.9531 513,941.9531 C513,944.9531 510,946.9531 508,946.9531 C505,946.9531 503,944.9531 503,941.9531 C503,944.9531 500,946.9531 498,946.9531 C495,946.9531 493,944.9531 493,941.9531 C493,944.9531 490,946.9531 488,946.9531 C485,946.9531 483,944.9531 483,941.9531 C483,944.9531 480,946.9531 478,946.9531 C475,946.9531 473,944.9531 473,941.9531 C473,944.9531 470,946.9531 468,946.9531 C465,946.9531 463,944.9531 463,941.9531 C463,944.9531 460,946.9531 458,946.9531 C455,946.9531 453,944.9531 453,941.9531 C453,944.9531 450,946.9531 448,946.9531 C445,946.9531 443,944.9531 443,941.9531 C443,944.9531 440,946.9531 438,946.9531 C435,946.9531 433,944.9531 433,941.9531 C433,944.9531 430,946.9531 428,946.9531 C425,946.9531 423,944.9531 423,941.9531 C423,944.9531 420,946.9531 418,946.9531 C415,946.9531 413,944.9531 413,941.9531 C413,944.9531 410,946.9531 408,946.9531 C405,946.9531 403,944.9531 403,941.9531 C403,944.9531 400,946.9531 398,946.9531 C395,946.9531 393,944.9531 393,941.9531 C393,944.9531 390,946.9531 388,946.9531 C385,946.9531 383,944.9531 383,941.9531 C383,944.9531 380,946.9531 378,946.9531 C375,946.9531 373,944.9531 373,941.9531 C373,944.9531 370,946.9531 368,946.9531 C365,946.9531 363,944.9531 363,941.9531 C363,944.9531 360,946.9531 358,946.9531 C355,946.9531 353,944.9531 353,941.9531 C353,944.9531 350,946.9531 348,946.9531 C345,946.9531 343,944.9531 343,941.9531 C343,944.9531 340,946.9531 338,946.9531 C335,946.9531 333,944.9531 333,941.9531 C333,944.9531 330,946.9531 328,946.9531 C325,946.9531 323,944.9531 323,941.9531 C323,944.9531 320,946.9531 318,946.9531 C315,946.9531 313,944.9531 313,941.9531 C313,944.9531 310,946.9531 308,946.9531 C305,946.9531 303,944.9531 303,941.9531 C303,944.9531 300,946.9531 298,946.9531 C295,946.9531 293,944.9531 293,941.9531 C293,944.9531 290,946.9531 288,946.9531 C285,946.9531 283,944.9531 283,941.9531 C283,944.9531 280,946.9531 278,946.9531 C275,946.9531 273,944.9531 273,941.9531 C273,944.9531 270,946.9531 268,946.9531 C265,946.9531 263,944.9531 263,941.9531 C260,941.9531 258,939.9531 258,936.9531 C258,933.9531 260,931.9531 263,931.9531 C260,931.9531 258,929.9531 258,926.9531 C258,923.9531 260,921.9531 263,921.9531 C260,921.9531 258,919.9531 258,916.9531 C258,913.9531 260,911.9531 263,911.9531 C260,911.9531 258,909.9531 258,906.9531 C258,903.9531 260,901.9531 263,901.9531 C260,901.9531 258,899.9531 258,896.9531 C258,893.9531 260,891.9531 263,891.9531 C260,891.9531 258,889.9531 258,886.9531 C258,883.9531 260,881.9531 263,881.9531 C260,881.9531 258,879.9531 258,876.9531 C258,873.9531 260,871.9531 263,871.9531 C260,871.9531 258,869.9531 258,866.9531 C258,863.9531 260,861.9531 263,861.9531 C260,861.9531 258,859.9531 258,856.9531 C258,853.9531 260,851.9531 263,851.9531 C260,851.9531 258,849.9531 258,846.9531 C258,843.9531 260,841.9531 263,841.9531 C260,841.9531 258,839.9531 258,836.9531 C258,833.9531 260,831.9531 263,831.9531 C260,831.9531 258,829.9531 258,826.9531 C258,823.9531 260,821.9531 263,821.9531 C260,821.9531 258,819.9531 258,816.9531 C258,813.9531 260,811.9531 263,811.9531 C260,811.9531 258,809.9531 258,806.9531 C258,803.9531 260,801.9531 263,801.9531 C260,801.9531 258,799.9531 258,796.9531 C258,793.9531 260,791.9531 263,791.9531 C260,791.9531 258,789.9531 258,786.9531 C258,783.9531 260,781.9531 263,781.9531 C260,781.9531 258,779.9531 258,776.9531 C258,773.9531 260,771.9531 263,771.9531 C260,771.9531 258,769.9531 258,766.9531 C258,763.9531 260,761.9531 263,761.9531 C260,761.9531 258,759.9531 258,756.9531 C258,753.9531 260,751.9531 263,751.9531 C260,751.9531 258,749.9531 258,746.9531 C258,743.9531 260,741.9531 263,741.9531 C260,741.9531 258,739.9531 258,736.9531 C258,733.9531 260,731.9531 263,731.9531 C260,731.9531 258,729.9531 258,726.9531 C258,723.9531 260,721.9531 263,721.9531 C260,721.9531 258,719.9531 258,716.9531 C258,713.9531 260,711.9531 263,711.9531 C260,711.9531 258,709.9531 258,706.9531 C258,703.9531 260,701.9531 263,701.9531 C260,701.9531 258,699.9531 258,696.9531 C258,693.9531 260,691.9531 263,691.9531 C260,691.9531 258,689.9531 258,686.9531 C258,683.9531 260,681.9531 263,681.9531 C260,681.9531 258,679.9531 258,676.9531 C258,673.9531 260,671.9531 263,671.9531 C260,671.9531 258,669.9531 258,666.9531 C258,663.9531 260,661.9531 263,661.9531 C260,661.9531 258,659.9531 258,656.9531 C258,653.9531 260,651.9531 263,651.9531 C260,651.9531 258,649.9531 258,646.9531 C258,643.9531 260,641.9531 263,641.9531 C260,641.9531 258,639.9531 258,636.9531 C258,633.9531 260,631.9531 263,631.9531 C260,631.9531 258,629.9531 258,626.9531 C258,623.9531 260,621.9531 263,621.9531 C260,621.9531 258,619.9531 258,616.9531 C258,613.9531 260,611.9531 263,611.9531 C260,611.9531 258,609.9531 258,606.9531 C258,603.9531 260,601.9531 263,601.9531 C260,601.9531 258,599.9531 258,596.9531 C258,593.9531 260,591.9531 263,591.9531 C260,591.9531 258,589.9531 258,586.9531 C258,583.9531 260,581.9531 263,581.9531 C260,581.9531 258,579.9531 258,576.9531 C258,573.9531 260,571.9531 263,571.9531 C260,571.9531 258,569.9531 258,566.9531 C258,563.9531 260,561.9531 263,561.9531 C260,561.9531 258,559.9531 258,556.9531 C258,553.9531 260,551.9531 263,551.9531 C260,551.9531 258,549.9531 258,546.9531 C258,543.9531 260,541.9531 263,541.9531 C260,541.9531 258,539.9531 258,536.9531 C258,533.9531 260,531.9531 263,531.9531 C260,531.9531 258,529.9531 258,526.9531 C258,523.9531 260,521.9531 263,521.9531 C260,521.9531 258,519.9531 258,516.9531 C258,513.9531 260,511.9531 263,511.9531 C260,511.9531 258,509.9531 258,506.9531 C258,503.9531 260,501.9531 263,501.9531 C260,501.9531 258,499.9531 258,496.9531 C258,493.9531 260,491.9531 263,491.9531 C260,491.9531 258,489.9531 258,486.9531 C258,483.9531 260,481.9531 263,481.9531 C260,481.9531 258,479.9531 258,476.9531 C258,473.9531 260,471.9531 263,471.9531 C260,471.9531 258,469.9531 258,466.9531 C258,463.9531 260,461.9531 263,461.9531 C260,461.9531 258,459.9531 258,456.9531 C258,453.9531 260,451.9531 263,451.9531 C260,451.9531 258,449.9531 258,446.9531 C258,443.9531 260,441.9531 263,441.9531 C260,441.9531 258,439.9531 258,436.9531 C258,433.9531 260,431.9531 263,431.9531 C260,431.9531 258,429.9531 258,426.9531 C258,423.9531 260,421.9531 263,421.9531 C260,421.9531 258,419.9531 258,416.9531 C258,413.9531 260,411.9531 263,411.9531 C260,411.9531 258,409.9531 258,406.9531 C258,403.9531 260,401.9531 263,401.9531 C260,401.9531 258,399.9531 258,396.9531 C258,393.9531 260,391.9531 263,391.9531 C260,391.9531 258,389.9531 258,386.9531 C258,383.9531 260,381.9531 263,381.9531 C260,381.9531 258,379.9531 258,376.9531 C258,373.9531 260,371.9531 263,371.9531 C260,371.9531 258,369.9531 258,366.9531 C258,363.9531 260,361.9531 263,361.9531 C260,361.9531 258,359.9531 258,356.9531 C258,353.9531 260,351.9531 263,351.9531 C260,351.9531 258,349.9531 258,346.9531 C258,343.9531 260,341.9531 263,341.9531 C260,341.9531 258,339.9531 258,336.9531 C258,333.9531 260,331.9531 263,331.9531 C260,331.9531 258,329.9531 258,326.9531 C258,323.9531 260,321.9531 263,321.9531 C260,321.9531 258,319.9531 258,316.9531 C258,313.9531 260,311.9531 263,311.9531 C260,311.9531 258,309.9531 258,306.9531 C258,303.9531 260,301.9531 263,301.9531 C260,301.9531 258,299.9531 258,296.9531 C258,293.9531 260,291.9531 263,291.9531 " fill="#FFFFFF" filter="url(#f1)" style="stroke: #000000; stroke-width: 2.0;"/><text fill="#000000" font-family="sans-serif" font-size="14" font-weight="bold" lengthAdjust="spacingAndGlyphs" textLength="141" x="920.5" y="310.9482">OpenStack Cloud</text><polygon fill="#FFFFFF" filter="url(#f1)" points="292,346.9531,302,336.9531,1376,336.9531,1376,910.9531,1366,920.9531,292,920.9531,292,346.9531" style="stroke: #000000; stroke-width: 2.0;"/><line style="stroke: #000000; stroke-width: 2.0;" x1="1366" x2="1375" y1="346.9531" y2="337.9531"/><line style="stroke: #000000; stroke-width: 2.0;" x1="292" x2="1366" y1="346.9531" y2="346.9531"/><line style="stroke: #000000; stroke-width: 2.0;" x1="1366" x2="1366" y1="346.9531" y2="920.9531"/><text fill="#000000" font-family="sans-serif" font-size="14" font-weight="bold" lengthAdjust="spacingAndGlyphs" textLength="120" x="772" y="362.9482">Reference VNF</text><path d="M635,534.9531 C635,524.9531 985.5,524.9531 985.5,524.9531 C985.5,524.9531 1336,524.9531 1336,534.9531 L1336,627.9531 C1336,637.9531 985.5,637.9531 985.5,637.9531 C985.5,637.9531 635,637.9531 635,627.9531 L635,534.9531 " fill="#FFFFFF" filter="url(#f1)" style="stroke: #000000; stroke-width: 2.0;"/><path d="M635,534.9531 C635,544.9531 985.5,544.9531 985.5,544.9531 C985.5,544.9531 1336,544.9531 1336,534.9531 " fill="none" style="stroke: #000000; stroke-width: 2.0;"/><text fill="#000000" font-family="sans-serif" font-size="14" font-weight="bold" lengthAdjust="spacingAndGlyphs" textLength="55" x="959" y="558.9482">SQLite</text><polygon fill="#FFFFFF" filter="url(#f1)" points="1293,1007.9531,1418,1007.9531,1425,1030.25,1854,1030.25,1854,1111.9531,1293,1111.9531,1293,1007.9531" style="stroke: #000000; stroke-width: 2.0;"/><line style="stroke: #000000; stroke-width: 2.0;" x1="1293" x2="1425" y1="1030.25" y2="1030.25"/><text fill="#000000" font-family="sans-serif" font-size="14" font-weight="bold" lengthAdjust="spacingAndGlyphs" textLength="120" x="1297" y="1022.9482">AT&amp;T Systems</text><polygon fill="#FFFFFF" filter="url(#f1)" points="727,1012.9531,737,1002.9531,1269,1002.9531,1269,1101.9531,1259,1111.9531,727,1111.9531,727,1012.9531" style="stroke: #000000; stroke-width: 2.0;"/><line style="stroke: #000000; stroke-width: 2.0;" x1="1259" x2="1268" y1="1012.9531" y2="1003.9531"/><line style="stroke: #000000; stroke-width: 2.0;" x1="727" x2="1259" y1="1012.9531" y2="1012.9531"/><line style="stroke: #000000; stroke-width: 2.0;" x1="1259" x2="1259" y1="1012.9531" y2="1111.9531"/><text fill="#000000" font-family="sans-serif" font-size="14" font-weight="bold" lengthAdjust="spacingAndGlyphs" textLength="109" x="940.5" y="1028.9482">Test Harness</text><rect fill="#90EE90" filter="url(#f1)" height="62.5938" style="stroke: #A80036; stroke-width: 1.5;" width="162" x="1538" y="703.4531"/><rect fill="#90EE90" height="10" style="stroke: #A80036; stroke-width: 1.5;" width="15" x="1680" y="708.4531"/><rect fill="#90EE90" height="2" style="stroke: #A80036; stroke-width: 1.5;" width="4" x="1678" y="710.4531"/><rect fill="#90EE90" height="2" style="stroke: #A80036; stroke-width: 1.5;" width="4" x="1678" y="714.4531"/><text fill="#000000" font-family="sans-serif" font-size="14" lengthAdjust="spacingAndGlyphs" textLength="77" x="1575.5" y="736.4482">OpenStack</text><text fill="#000000" font-family="sans-serif" font-size="14" lengthAdjust="spacingAndGlyphs" textLength="122" x="1553" y="752.7451">Metadata Service</text><ellipse cx="1433.5" cy="726.9531" fill="#90EE90" filter="url(#f1)" rx="8" ry="8" style="stroke: #A80036; stroke-width: 2.0;"/><text fill="#000000" font-family="sans-serif" font-size="14" lengthAdjust="spacingAndGlyphs" textLength="67" x="1400" y="748.9482">Metadata</text><rect fill="#FEFECE" filter="url(#f1)" height="62.5938" style="stroke: #A80036; stroke-width: 1.5;" width="121" x="615" y="386.4531"/><rect fill="#FEFECE" height="10" style="stroke: #A80036; stroke-width: 1.5;" width="15" x="716" y="391.4531"/><rect fill="#FEFECE" height="2" style="stroke: #A80036; stroke-width: 1.5;" width="4" x="714" y="393.4531"/><rect fill="#FEFECE" height="2" style="stroke: #A80036; stroke-width: 1.5;" width="4" x="714" y="397.4531"/><text fill="#000000" font-family="sans-serif" font-size="14" lengthAdjust="spacingAndGlyphs" textLength="52" x="644.5" y="419.4482">Apache</text><text fill="#000000" font-family="sans-serif" font-size="14" lengthAdjust="spacingAndGlyphs" textLength="81" x="630" y="435.7451">Web Server</text><ellipse cx="476" cy="409.9531" fill="#FEFECE" filter="url(#f1)" rx="8" ry="8" style="stroke: #A80036; stroke-width: 2.0;"/><text fill="#000000" font-family="sans-serif" font-size="14" lengthAdjust="spacingAndGlyphs" textLength="36" x="458" y="431.9482">HTTP</text><rect fill="#FEFECE" filter="url(#f1)" height="62.5938" style="stroke: #A80036; stroke-width: 1.5;" width="117" x="860" y="386.4531"/><rect fill="#FEFECE" height="10" style="stroke: #A80036; stroke-width: 1.5;" width="15" x="957" y="391.4531"/><rect fill="#FEFECE" height="2" style="stroke: #A80036; stroke-width: 1.5;" width="4" x="955" y="393.4531"/><rect fill="#FEFECE" height="2" style="stroke: #A80036; stroke-width: 1.5;" width="4" x="955" y="397.4531"/><text fill="#000000" font-family="sans-serif" font-size="14" lengthAdjust="spacingAndGlyphs" textLength="32" x="897.5" y="419.4482">Web</text><text fill="#000000" font-family="sans-serif" font-size="14" lengthAdjust="spacingAndGlyphs" textLength="77" x="875" y="435.7451">Application</text><rect fill="#FEFECE" filter="url(#f1)" height="46.2969" style="stroke: #A80036; stroke-width: 1.5;" width="154" x="458" y="575.9531"/><rect fill="#FEFECE" height="10" style="stroke: #A80036; stroke-width: 1.5;" width="15" x="592" y="580.9531"/><rect fill="#FEFECE" height="2" style="stroke: #A80036; stroke-width: 1.5;" width="4" x="590" y="582.9531"/><rect fill="#FEFECE" height="2" style="stroke: #A80036; stroke-width: 1.5;" width="4" x="590" y="586.9531"/><text fill="#000000" font-family="sans-serif" font-size="14" lengthAdjust="spacingAndGlyphs" textLength="114" x="473" y="608.9482">Backend Service</text><ellipse cx="351" cy="582.4531" fill="#FEFECE" filter="url(#f1)" rx="8" ry="8" style="stroke: #A80036; stroke-width: 2.0;"/><text fill="#000000" font-family="sans-serif" font-size="14" lengthAdjust="spacingAndGlyphs" textLength="70" x="316" y="604.4482">Command</text><text fill="#000000" font-family="sans-serif" font-size="14" lengthAdjust="spacingAndGlyphs" textLength="50" x="326" y="620.7451">Socket</text><rect fill="#FEFECE" filter="url(#f1)" height="46.2969" style="stroke: #A80036; stroke-width: 1.5;" width="125" x="337" y="711.9531"/><rect fill="#FEFECE" height="10" style="stroke: #A80036; stroke-width: 1.5;" width="15" x="442" y="716.9531"/><rect fill="#FEFECE" height="2" style="stroke: #A80036; stroke-width: 1.5;" width="4" x="440" y="718.9531"/><rect fill="#FEFECE" height="2" style="stroke: #A80036; stroke-width: 1.5;" width="4" x="440" y="722.9531"/><text fill="#000000" font-family="sans-serif" font-size="14" lengthAdjust="spacingAndGlyphs" textLength="85" x="352" y="744.9482">Task Thread</text><rect fill="#FEFECE" filter="url(#f1)" height="46.2969" style="stroke: #A80036; stroke-width: 1.5;" width="173" x="993" y="847.9531"/><rect fill="#FEFECE" height="10" style="stroke: #A80036; stroke-width: 1.5;" width="15" x="1146" y="852.9531"/><rect fill="#FEFECE" height="2" style="stroke: #A80036; stroke-width: 1.5;" width="4" x="1144" y="854.9531"/><rect fill="#FEFECE" height="2" style="stroke: #A80036; stroke-width: 1.5;" width="4" x="1144" y="858.9531"/><text fill="#000000" font-family="sans-serif" font-size="14" lengthAdjust="spacingAndGlyphs" textLength="133" x="1008" y="880.9482">Notification Thread</text><ellipse cx="488.5" cy="854.4531" fill="#FEFECE" filter="url(#f1)" rx="8" ry="8" style="stroke: #A80036; stroke-width: 2.0;"/><text fill="#000000" font-family="sans-serif" font-size="14" lengthAdjust="spacingAndGlyphs" textLength="81" x="448" y="876.4482">Notification</text><text fill="#000000" font-family="sans-serif" font-size="14" lengthAdjust="spacingAndGlyphs" textLength="45" x="466" y="892.7451">Queue</text><rect fill="#FEFECE" filter="url(#f1)" height="46.2969" style="stroke: #A80036; stroke-width: 1.5;" width="164" x="498" y="711.9531"/><rect fill="#FEFECE" height="10" style="stroke: #A80036; stroke-width: 1.5;" width="15" x="642" y="716.9531"/><rect fill="#FEFECE" height="2" style="stroke: #A80036; stroke-width: 1.5;" width="4" x="640" y="718.9531"/><rect fill="#FEFECE" height="2" style="stroke: #A80036; stroke-width: 1.5;" width="4" x="640" y="722.9531"/><text fill="#000000" font-family="sans-serif" font-size="14" lengthAdjust="spacingAndGlyphs" textLength="124" x="513" y="744.9482">Heartbeat Thread</text><rect fill="#FEFECE" filter="url(#f1)" height="46.2969" style="stroke: #A80036; stroke-width: 1.5;" width="110" x="1208" y="575.9531"/><rect fill="#FEFECE" height="10" style="stroke: #A80036; stroke-width: 1.5;" width="15" x="1298" y="580.9531"/><rect fill="#FEFECE" height="2" style="stroke: #A80036; stroke-width: 1.5;" width="4" x="1296" y="582.9531"/><rect fill="#FEFECE" height="2" style="stroke: #A80036; stroke-width: 1.5;" width="4" x="1296" y="586.9531"/><text fill="#000000" font-family="sans-serif" font-size="14" lengthAdjust="spacingAndGlyphs" textLength="70" x="1223" y="608.9482">Fault Defs</text><rect fill="#FEFECE" filter="url(#f1)" height="46.2969" style="stroke: #A80036; stroke-width: 1.5;" width="172" x="651" y="575.9531"/><rect fill="#FEFECE" height="10" style="stroke: #A80036; stroke-width: 1.5;" width="15" x="803" y="580.9531"/><rect fill="#FEFECE" height="2" style="stroke: #A80036; stroke-width: 1.5;" width="4" x="801" y="582.9531"/><rect fill="#FEFECE" height="2" style="stroke: #A80036; stroke-width: 1.5;" width="4" x="801" y="586.9531"/><text fill="#000000" font-family="sans-serif" font-size="14" lengthAdjust="spacingAndGlyphs" textLength="132" x="666" y="608.9482">Measurement Defs</text><rect fill="#FEFECE" filter="url(#f1)" height="46.2969" style="stroke: #A80036; stroke-width: 1.5;" width="123" x="860" y="575.9531"/><rect fill="#FEFECE" height="10" style="stroke: #A80036; stroke-width: 1.5;" width="15" x="963" y="580.9531"/><rect fill="#FEFECE" height="2" style="stroke: #A80036; stroke-width: 1.5;" width="4" x="961" y="582.9531"/><rect fill="#FEFECE" height="2" style="stroke: #A80036; stroke-width: 1.5;" width="4" x="961" y="586.9531"/><text fill="#000000" font-family="sans-serif" font-size="14" lengthAdjust="spacingAndGlyphs" textLength="83" x="875" y="608.9482">Syslog Defs</text><rect fill="#FEFECE" filter="url(#f1)" height="46.2969" style="stroke: #A80036; stroke-width: 1.5;" width="151" x="1017" y="575.9531"/><rect fill="#FEFECE" height="10" style="stroke: #A80036; stroke-width: 1.5;" width="15" x="1148" y="580.9531"/><rect fill="#FEFECE" height="2" style="stroke: #A80036; stroke-width: 1.5;" width="4" x="1146" y="582.9531"/><rect fill="#FEFECE" height="2" style="stroke: #A80036; stroke-width: 1.5;" width="4" x="1146" y="586.9531"/><text fill="#000000" font-family="sans-serif" font-size="14" lengthAdjust="spacingAndGlyphs" textLength="111" x="1032" y="608.9482">MobileFlow Defs</text><rect fill="#90EE90" filter="url(#f1)" height="46.2969" style="stroke: #A80036; stroke-width: 1.5;" width="189" x="1477" y="1046.9531"/><rect fill="#90EE90" height="10" style="stroke: #A80036; stroke-width: 1.5;" width="15" x="1646" y="1051.9531"/><rect fill="#90EE90" height="2" style="stroke: #A80036; stroke-width: 1.5;" width="4" x="1644" y="1053.9531"/><rect fill="#90EE90" height="2" style="stroke: #A80036; stroke-width: 1.5;" width="4" x="1644" y="1057.9531"/><text fill="#000000" font-family="sans-serif" font-size="14" lengthAdjust="spacingAndGlyphs" textLength="149" x="1492" y="1079.9482">Vendor Event Service</text><ellipse cx="1356" cy="1053.4531" fill="#90EE90" filter="url(#f1)" rx="8" ry="8" style="stroke: #A80036; stroke-width: 2.0;"/><text fill="#000000" font-family="sans-serif" font-size="14" lengthAdjust="spacingAndGlyphs" textLength="94" x="1309" y="1075.4482">Vendor Event</text><text fill="#000000" font-family="sans-serif" font-size="14" lengthAdjust="spacingAndGlyphs" textLength="56" x="1328" y="1091.7451">Listener</text><rect fill="#90EE90" filter="url(#f1)" height="46.2969" style="stroke: #A80036; stroke-width: 1.5;" width="130" x="1706" y="1046.9531"/><rect fill="#90EE90" height="10" style="stroke: #A80036; stroke-width: 1.5;" width="15" x="1816" y="1051.9531"/><rect fill="#90EE90" height="2" style="stroke: #A80036; stroke-width: 1.5;" width="4" x="1814" y="1053.9531"/><rect fill="#90EE90" height="2" style="stroke: #A80036; stroke-width: 1.5;" width="4" x="1814" y="1057.9531"/><text fill="#000000" font-family="sans-serif" font-size="14" lengthAdjust="spacingAndGlyphs" textLength="90" x="1721" y="1079.9482">Orchestrator</text><rect fill="#FEFECE" filter="url(#f1)" height="46.2969" style="stroke: #A80036; stroke-width: 1.5;" width="140" x="907" y="1046.9531"/><rect fill="#FEFECE" height="10" style="stroke: #A80036; stroke-width: 1.5;" width="15" x="1027" y="1051.9531"/><rect fill="#FEFECE" height="2" style="stroke: #A80036; stroke-width: 1.5;" width="4" x="1025" y="1053.9531"/><rect fill="#FEFECE" height="2" style="stroke: #A80036; stroke-width: 1.5;" width="4" x="1025" y="1057.9531"/><text fill="#000000" font-family="sans-serif" font-size="14" lengthAdjust="spacingAndGlyphs" textLength="100" x="922" y="1079.9482">Test Collector</text><ellipse cx="789.5" cy="1053.4531" fill="#FEFECE" filter="url(#f1)" rx="8" ry="8" style="stroke: #A80036; stroke-width: 2.0;"/><text fill="#000000" font-family="sans-serif" font-size="14" lengthAdjust="spacingAndGlyphs" textLength="93" x="743" y="1075.4482">Test Listener</text><text fill="#000000" font-family="sans-serif" font-size="14" lengthAdjust="spacingAndGlyphs" textLength="50" x="764.5" y="1091.7451">Socket</text><rect fill="#FEFECE" filter="url(#f1)" height="46.2969" style="stroke: #A80036; stroke-width: 1.5;" width="132" x="1119" y="1046.9531"/><rect fill="#FEFECE" height="10" style="stroke: #A80036; stroke-width: 1.5;" width="15" x="1231" y="1051.9531"/><rect fill="#FEFECE" height="2" style="stroke: #A80036; stroke-width: 1.5;" width="4" x="1229" y="1053.9531"/><rect fill="#FEFECE" height="2" style="stroke: #A80036; stroke-width: 1.5;" width="4" x="1229" y="1057.9531"/><text fill="#000000" font-family="sans-serif" font-size="14" lengthAdjust="spacingAndGlyphs" textLength="92" x="1134" y="1079.9482">JSON Schema</text><ellipse cx="411.5" cy="39.4531" fill="#90EE90" filter="url(#f1)" rx="8" ry="8" style="stroke: #A80036; stroke-width: 2.0;"/><path d="M411.5,47.4531 L411.5,74.4531 M398.5,55.4531 L424.5,55.4531 M411.5,74.4531 L398.5,89.4531 M411.5,74.4531 L424.5,89.4531 " fill="#90EE90" filter="url(#f1)" style="stroke: #A80036; stroke-width: 2.0;"/><text fill="#000000" font-family="sans-serif" font-size="14" lengthAdjust="spacingAndGlyphs" textLength="69" x="377" y="109.4482">Test User</text><rect fill="#D3D3D3" filter="url(#f1)" height="46.2969" style="stroke: #A80036; stroke-width: 1.5;" width="117" x="256" y="174.9531"/><rect fill="#D3D3D3" height="10" style="stroke: #A80036; stroke-width: 1.5;" width="15" x="353" y="179.9531"/><rect fill="#D3D3D3" height="2" style="stroke: #A80036; stroke-width: 1.5;" width="4" x="351" y="181.9531"/><rect fill="#D3D3D3" height="2" style="stroke: #A80036; stroke-width: 1.5;" width="4" x="351" y="185.9531"/><text fill="#000000" font-family="sans-serif" font-size="14" lengthAdjust="spacingAndGlyphs" textLength="77" x="271" y="207.9482">Test Client</text><rect fill="#90EE90" filter="url(#f1)" height="46.2969" style="stroke: #A80036; stroke-width: 1.5;" width="132" x="409" y="174.9531"/><rect fill="#90EE90" height="10" style="stroke: #A80036; stroke-width: 1.5;" width="15" x="521" y="179.9531"/><rect fill="#90EE90" height="2" style="stroke: #A80036; stroke-width: 1.5;" width="4" x="519" y="181.9531"/><rect fill="#90EE90" height="2" style="stroke: #A80036; stroke-width: 1.5;" width="4" x="519" y="185.9531"/><text fill="#000000" font-family="sans-serif" font-size="14" lengthAdjust="spacingAndGlyphs" textLength="92" x="424" y="207.9482">Web Browser</text><polygon fill="#FBFB77" filter="url(#f1)" points="6,374.9531,6,460.6172,244,460.6172,244,384.9531,234,374.9531,6,374.9531" style="stroke: #A80036; stroke-width: 1.0;"/><polygon fill="#FBFB77" points="6,374.9531,6,460.6172,244,460.6172,244,384.9531,234,374.9531,166.26,374.9531,295.026,221.0811,158.26,374.9531,6,374.9531" style="stroke: #A80036; stroke-width: 1.0;"/><line style="stroke: #A80036; stroke-width: 1.0;" x1="234" x2="234" y1="374.9531" y2="384.9531"/><line style="stroke: #A80036; stroke-width: 1.0;" x1="244" x2="234" y1="384.9531" y2="384.9531"/><text fill="#000000" font-family="sans-serif" font-size="13" lengthAdjust="spacingAndGlyphs" textLength="213" x="12" y="392.02">Note that this does not form part</text><text fill="#000000" font-family="sans-serif" font-size="13" lengthAdjust="spacingAndGlyphs" textLength="222" x="12" y="407.1528">of the deliverables, but is enabled</text><text fill="#000000" font-family="sans-serif" font-size="13" lengthAdjust="spacingAndGlyphs" textLength="215" x="12" y="422.2856">by the use of a simple JSON over</text><text fill="#000000" font-family="sans-serif" font-size="13" lengthAdjust="spacingAndGlyphs" textLength="200" x="12" y="437.4185">TCP interface into the backend</text><text fill="#000000" font-family="sans-serif" font-size="13" lengthAdjust="spacingAndGlyphs" textLength="51" x="12" y="452.5513">service.</text><path d="M494.059,417.9531 C534.315,417.9531 574.572,417.9531 614.829,417.9531 " fill="none" style="stroke: #A80036; stroke-width: 1.0;"/><path d="M739.203,417.9531 C774.327,417.9531 818.236,417.9531 854.102,417.9531 " fill="none" style="stroke: #A80036; stroke-width: 1.0;"/><polygon fill="#A80036" points="859.334,417.9531,850.334,413.9531,854.334,417.9531,850.334,421.9531,859.334,417.9531" style="stroke: #A80036; stroke-width: 1.0;"/><text fill="#000000" font-family="sans-serif" font-size="13" lengthAdjust="spacingAndGlyphs" textLength="29" x="784" y="413.02">wsgi</text><path d="M388.133,598.9531 C411.393,598.9531 434.654,598.9531 457.914,598.9531 " fill="none" style="stroke: #A80036; stroke-width: 1.0;"/><path d="M532.203,870.9531 C685.76,870.9531 839.316,870.9531 992.873,870.9531 " fill="none" style="stroke: #A80036; stroke-width: 1.0;"/><path d="M889.124,449.4811 C854.092,484.1301 798.408,539.2061 765.308,571.9441 " fill="none" style="stroke: #A80036; stroke-width: 1.0;"/><polygon fill="#A80036" points="761.386,575.8221,770.5982,572.3386,764.9415,572.3066,764.9735,566.6499,761.386,575.8221" style="stroke: #A80036; stroke-width: 1.0;"/><path d="M921,449.4811 C921,483.7071 921,537.8651 921,570.7361 " fill="none" style="stroke: #A80036; stroke-width: 1.0;"/><polygon fill="#A80036" points="921,575.8221,925,566.8221,921,570.8221,917,566.8221,921,575.8221" style="stroke: #A80036; stroke-width: 1.0;"/><path d="M951.308,449.4811 C984.617,484.1301 1037.56,539.2061 1069.04,571.9441 " fill="none" style="stroke: #A80036; stroke-width: 1.0;"/><polygon fill="#A80036" points="1072.76,575.8221,1069.3998,566.5642,1069.2923,572.22,1063.6365,572.1126,1072.76,575.8221" style="stroke: #A80036; stroke-width: 1.0;"/><path d="M964.678,449.5091 C971.61,453.7271 978.854,457.7091 986,460.9531 C1071.61,499.8211 1109.96,467.6271 1190,516.9531 C1212.42,530.7721 1232.09,553.3691 1245.5,571.3461 " fill="none" style="stroke: #A80036; stroke-width: 1.0;"/><polygon fill="#A80036" points="1248.77,575.8081,1246.6852,566.1825,1245.8181,571.7725,1240.2281,570.9055,1248.77,575.8081" style="stroke: #A80036; stroke-width: 1.0;"/><text fill="#000000" font-family="sans-serif" font-size="13" lengthAdjust="spacingAndGlyphs" textLength="147" x="1178" y="504.02">Django Data Model API</text><path d="M859.687,434.7781 C828.703,443.0641 790.461,452.9641 756,460.9531 C651.729,485.1251 625.832,492.9411 520,508.9531 C484.669,514.2991 472.556,502.2231 440,516.9531 C414.353,528.5571 391.315,550.6781 375.25,569.0221 " fill="none" style="stroke: #A80036; stroke-width: 1.0; stroke-dasharray: 7.0,7.0;"/><polygon fill="#A80036" points="371.726,573.1131,380.6301,568.9039,374.9889,569.3245,374.5683,563.6833,371.726,573.1131" style="stroke: #A80036; stroke-width: 1.0;"/><text fill="#000000" font-family="sans-serif" font-size="13" lengthAdjust="spacingAndGlyphs" textLength="71" x="624" y="504.02">JSON (TCP)</text><path d="M499.265,622.0011 C485.502,631.3301 470.309,642.7741 458,654.9531 C442.171,670.6141 427.484,690.9591 416.849,707.2131 " fill="none" style="stroke: #A80036; stroke-width: 1.0;"/><polygon fill="#A80036" points="413.959,711.6821,422.2056,706.2976,416.6745,707.4838,415.4883,701.9527,413.959,711.6821" style="stroke: #A80036; stroke-width: 1.0;"/><text fill="#000000" font-family="sans-serif" font-size="13" lengthAdjust="spacingAndGlyphs" textLength="42" x="459" y="668.02">spawn</text><path d="M521.347,622.1171 C513.362,636.9591 506.719,656.4611 514,672.9531 C520.034,686.6201 530.734,698.5761 541.885,708.2461 " fill="none" style="stroke: #A80036; stroke-width: 1.0;"/><polygon fill="#A80036" points="546.006,711.7051,541.6835,702.8555,542.176,708.4909,536.5407,708.9834,546.006,711.7051" style="stroke: #A80036; stroke-width: 1.0;"/><text fill="#000000" font-family="sans-serif" font-size="13" lengthAdjust="spacingAndGlyphs" textLength="42" x="515" y="668.02">spawn</text><path d="M395.439,758.2171 C393.371,775.0691 393.225,797.8081 403,814.9531 C412.108,830.9281 427.845,843.0821 443.452,851.9161 " fill="none" style="stroke: #A80036; stroke-width: 1.0; stroke-dasharray: 7.0,7.0;"/><polygon fill="#A80036" points="447.845,854.3201,441.8709,846.49,443.4591,851.9194,438.0297,853.5075,447.845,854.3201" style="stroke: #A80036; stroke-width: 1.0;"/><text fill="#000000" font-family="sans-serif" font-size="13" lengthAdjust="spacingAndGlyphs" textLength="131" x="404" y="810.02">Inter-thread queues</text><path d="M570.474,758.0441 C561.963,774.4011 549.695,796.6071 537,814.9531 C530.855,823.8331 523.604,832.9961 516.66,841.2731 " fill="none" style="stroke: #A80036; stroke-width: 1.0; stroke-dasharray: 7.0,7.0;"/><polygon fill="#A80036" points="513.282,845.2591,522.1525,840.9797,516.5148,841.4449,516.0497,835.8072,513.282,845.2591" style="stroke: #A80036; stroke-width: 1.0;"/><text fill="#000000" font-family="sans-serif" font-size="13" lengthAdjust="spacingAndGlyphs" textLength="131" x="549" y="810.02">Inter-thread queues</text><path d="M666.227,722.0731 C686.219,723.1061 701,727.3991 701,734.9531 C701,741.8581 688.65,746.0381 671.26,747.4941 " fill="none" style="stroke: #A80036; stroke-width: 1.0;"/><polygon fill="#A80036" points="666.227,747.8331,675.4753,751.2198,671.2157,747.4974,674.9381,743.2378,666.227,747.8331" style="stroke: #A80036; stroke-width: 1.0;"/><text fill="#000000" font-family="sans-serif" font-size="13" lengthAdjust="spacingAndGlyphs" textLength="35" x="707" y="739.02">timer</text><path d="M1468.15,734.9531 C1491.38,734.9531 1514.61,734.9531 1537.85,734.9531 " fill="none" style="stroke: #A80036; stroke-width: 1.0;"/><path d="M576.71,622.1151 C594.044,631.1241 614.956,640.5601 635,645.9531 C947.117,729.9271 1046.3,625.0871 1360,702.9531 C1372.12,705.9631 1384.79,710.7631 1396.14,715.7401 " fill="none" style="stroke: #A80036; stroke-width: 1.0; stroke-dasharray: 7.0,7.0;"/><polygon fill="#A80036" points="1400.92,717.8791,1394.3402,710.5507,1396.3565,715.836,1391.0712,717.8523,1400.92,717.8791" style="stroke: #A80036; stroke-width: 1.0;"/><text fill="#000000" font-family="sans-serif" font-size="13" lengthAdjust="spacingAndGlyphs" textLength="79" x="1153" y="668.02">JSON (HTTP)</text><path d="M1407.36,1069.9531 C1430.47,1069.9531 1453.58,1069.9531 1476.68,1069.9531 " fill="none" style="stroke: #A80036; stroke-width: 1.0;"/><path d="M1772,1046.6692 C1772,1009.5151 1772,934.5221 1772,870.9531 C1772,598.9531 1772,598.9531 1772,598.9531 C1772,511.1141 1449.91,435.8331 1380.91,420.7141 " fill="none" style="stroke: #A80036; stroke-width: 1.0; stroke-dasharray: 7.0,7.0;"/><polygon fill="#A80036" points="1375.71,419.5831,1383.6605,425.396,1380.5969,420.6405,1385.3524,417.5769,1375.71,419.5831" style="stroke: #A80036; stroke-width: 1.0;"/><text fill="#000000" font-family="sans-serif" font-size="13" lengthAdjust="spacingAndGlyphs" textLength="76" x="1773" y="739.02">Instantiates</text><path d="M1119.41,893.9741 C1157.78,918.0031 1218.8,957.3541 1269,994.9531 C1288.23,1009.3591 1308.8,1026.5651 1325.32,1040.8617 " fill="none" style="stroke: #A80036; stroke-width: 1.0; stroke-dasharray: 7.0,7.0;"/><polygon fill="#A80036" points="1329.42,1044.4301,1325.2578,1035.504,1325.6486,1041.1473,1320.0053,1041.5382,1329.42,1044.4301" style="stroke: #A80036; stroke-width: 1.0;"/><text fill="#000000" font-family="sans-serif" font-size="13" lengthAdjust="spacingAndGlyphs" textLength="78" x="1256" y="982.02">JSON/HTTPS</text><path d="M837,1069.9531 C860.316,1069.9531 883.633,1069.9531 906.949,1069.9531 " fill="none" style="stroke: #A80036; stroke-width: 1.0;"/><path d="M1049.09,1069.9531 C1072.36,1069.9531 1095.62,1069.9531 1118.88,1069.9531 " fill="none" style="stroke: #A80036; stroke-width: 1.0;"/><path d="M1044.07,894.1121 C1004.741,918.4111 941.731,958.1221 889,994.9531 C867.964,1009.6461 845.093,1026.8851 826.638,1041.1287 " fill="none" style="stroke: #A80036; stroke-width: 1.0; stroke-dasharray: 7.0,7.0;"/><polygon fill="#A80036" points="822.53,1044.3066,832.0965,1041.9652,826.4853,1041.2479,827.2026,1035.6367,822.53,1044.3066" style="stroke: #A80036; stroke-width: 1.0;"/><text fill="#000000" font-family="sans-serif" font-size="13" lengthAdjust="spacingAndGlyphs" textLength="78" x="927" y="982.02">JSON/HTTPS</text><path d="M431.611,112.5331 C441.439,131.4491 452.803,153.3161 461.573,170.1911 " fill="none" style="stroke: #A80036; stroke-width: 1.0; stroke-dasharray: 7.0,7.0;"/><polygon fill="#A80036" points="463.974,174.8121,463.3735,164.9816,461.6685,170.3754,456.2747,168.6704,463.974,174.8121" style="stroke: #A80036; stroke-width: 1.0;"/><path d="M378.893,112.5331 C364.626,131.6111 348.11,153.6901 335.444,170.6231 " fill="none" style="stroke: #A80036; stroke-width: 1.0; stroke-dasharray: 7.0,7.0;"/><polygon fill="#A80036" points="332.311,174.8121,340.9052,170.0018,335.3062,170.8085,334.4995,165.2095,332.311,174.8121" style="stroke: #A80036; stroke-width: 1.0;"/><path d="M476,221.0811 C476,263.6111 476,353.7091 476,395.6301 " fill="none" style="stroke: #A80036; stroke-width: 1.0; stroke-dasharray: 7.0,7.0;"/><polygon fill="#A80036" points="476,400.7371,480,391.7371,476,395.7371,472,391.7371,476,400.7371" style="stroke: #A80036; stroke-width: 1.0;"/><text fill="#000000" font-family="sans-serif" font-size="13" lengthAdjust="spacingAndGlyphs" textLength="33" x="477" y="264.02">HTTP</text><path d="M317.149,221.2461 C323.468,289.7241 341.987,490.4321 349.137,567.9261 " fill="none" style="stroke: #A80036; stroke-width: 1.0; stroke-dasharray: 7.0,7.0;"/><polygon fill="#A80036" points="349.632,573.2891,352.787,563.9593,349.172,568.3103,344.8209,564.6953,349.632,573.2891" style="stroke: #A80036; stroke-width: 1.0;"/><text fill="#000000" font-family="sans-serif" font-size="13" lengthAdjust="spacingAndGlyphs" textLength="71" x="340" y="422.02">JSON (TCP)</text></g></svg>